<mxfile host="app.diagrams.net" modified="2024-09-09T08:41:27.926Z" agent="Mozilla/5.0 (Windows NT 10.0; Win64; x64) AppleWebKit/537.36 (KHTML, like Gecko) Chrome/128.0.0.0 Safari/537.36 Edg/128.0.0.0" version="24.3.1" etag="2F7AwU5hjzTmjO4uozL3" type="github">
  <diagram name="Page-1" id="Z5FTGkGa2ShZTrfyx7nZ">
    <mxGraphModel>
      <root>
        <mxCell id="0" />
        <mxCell id="1" parent="0" />
      </root>
    </mxGraphModel>
  </diagram>
</mxfile>
